<?xml version="1.0" standalone="no"?>
<!DOCTYPE svg PUBLIC "-//W3C//DTD SVG 20010904//EN"
 "http://www.w3.org/TR/2001/REC-SVG-20010904/DTD/svg10.dtd">
<svg version="1.0" xmlns="http://www.w3.org/2000/svg"
 width="700.000000pt" height="700.000000pt" viewBox="0 0 700.000000 700.000000"
 preserveAspectRatio="xMidYMid meet">
<metadata>
Created by potrace 1.14, written by Peter Selinger 2001-2017
</metadata>
<g transform="translate(0.000000,700.000000) scale(0.100000,-0.100000)"
fill="#000000" stroke="none">
<path d="M3005 6891 c-119 -18 -138 -25 -193 -76 -30 -26 -53 -36 -122 -50
-389 -77 -747 -215 -1068 -411 -209 -128 -359 -249 -576 -462 -305 -301 -510
-580 -685 -932 -220 -444 -324 -875 -338 -1410 -11 -417 33 -774 142 -1141
156 -526 393 -960 757 -1386 293 -342 1037 -745 1527 -828 516 -86 1010 -118
1498 -97 419 18 643 45 903 108 888 216 1541 835 1845 1748 188 564 275 1103
275 1701 0 338 -25 552 -96 838 -139 553 -389 995 -788 1392 -243 243 -439
389 -694 518 -565 287 -1139 449 -1761 497 -199 15 -496 11 -626 -9z m715
-487 c488 -55 994 -205 1433 -425 334 -168 712 -514 932 -854 208 -322 331
-677 380 -1099 18 -161 21 -529 5 -731 -52 -657 -234 -1316 -467 -1695 -310
-503 -752 -810 -1358 -943 -445 -98 -1552 -93 -2095 9 -158 30 -356 93 -495
158 -128 60 -424 237 -540 324 -122 90 -316 285 -407 408 -275 372 -488 906
-571 1434 -29 186 -31 671 -4 855 78 515 201 847 458 1231 280 419 638 734
1099 968 352 179 623 254 1004 278 198 12 235 22 277 78 l24 31 95 -6 c52 -3
156 -13 230 -21z"/>
<path d="M2447 4450 c-43 -8 -136 -69 -172 -112 -14 -17 -38 -51 -53 -76 -24
-42 -27 -56 -27 -142 0 -83 3 -102 28 -151 34 -70 110 -142 184 -176 55 -25
61 -26 140 -16 214 26 313 142 313 363 0 76 -3 87 -31 132 -85 132 -241 205
-382 178z"/>
<path d="M4424 4419 c-27 -17 -70 -52 -96 -77 -64 -61 -83 -118 -83 -242 0
-80 4 -102 23 -138 55 -103 190 -192 292 -192 145 0 260 71 326 203 24 47 26
59 21 137 -7 104 -27 165 -74 220 -69 80 -166 120 -293 120 -57 0 -73 -4 -116
-31z"/>
<path d="M4805 3004 c-16 -9 -86 -71 -155 -138 -208 -202 -371 -310 -555 -369
-151 -48 -181 -51 -515 -51 -336 1 -453 10 -644 50 -263 56 -417 136 -596 310
-104 101 -146 121 -228 110 -55 -7 -88 -25 -134 -71 -50 -51 -71 -99 -71 -165
0 -92 31 -146 147 -257 273 -263 559 -379 1076 -439 296 -34 777 -28 950 12
200 45 445 155 610 272 112 80 295 257 374 363 53 72 56 79 56 135 0 155 -72
231 -235 249 -36 4 -58 1 -80 -11z"/>
</g>
</svg>
